<svg xmlns="http://www.w3.org/2000/svg" xmlns:xlink="http://www.w3.org/1999/xlink" viewBox="0 0 182.65 234.03"><defs><style>.cls-1,.cls-5{fill:none;}.cls-2{fill:#d2d2d1;}.cls-3{clip-path:url(#clip-path);}.cls-4{font-size:187.74px;fill:#fff;font-family:Cinzel-Regular, Cinzel;}.cls-5{stroke:#fff;stroke-miterlimit:10;stroke-width:0.25px;fill-rule:evenodd;}</style><clipPath id="clip-path" transform="translate(-868.88 -453.47)"><circle class="cls-1" cx="960.2" cy="544.8" r="91.2"/></clipPath></defs><g id="Layer_4" data-name="Layer 4"><path class="cls-1" d="M984.91,545.36H934.34l-12.57,32.09a13.45,13.45,0,0,0-.42,1.38h76a13.85,13.85,0,0,0-.45-1.49Z" transform="translate(-868.88 -453.47)"/><polygon class="cls-1" points="67.67 86.25 113.92 86.25 91.29 26 67.67 86.25"/><path class="cls-2" d="M1012.34,577.28,962.16,456.94h-1.69c0,4.13-7,19.34-7,19.34l-42.57,101c-.24.53-.5,1-.76,1.53h11.17a13.45,13.45,0,0,1,.42-1.38l12.57-32.09h50.57l12,32a13.85,13.85,0,0,1,.45,1.49h15.75C1012.84,578.33,1012.59,577.82,1012.34,577.28Zm-75.79-37.55,23.61-60.25,22.63,60.25Z" transform="translate(-868.88 -453.47)"/></g><g id="Layer_2" data-name="Layer 2"><g class="cls-3"><text class="cls-4" transform="translate(6.45 174.33)">M</text><path class="cls-5" d="M960.2,453.6a91.2,91.2,0,1,0,91.2,91.2A91.2,91.2,0,0,0,960.2,453.6Z" transform="translate(-868.88 -453.47)"/></g></g></svg>