<svg xmlns="http://www.w3.org/2000/svg" xmlns:xlink="http://www.w3.org/1999/xlink" viewBox="0 0 182.4 192"><defs><style>.cls-1,.cls-5{fill:none;}.cls-2{fill:#5c5c5c;}.cls-3{clip-path:url(#clip-path);}.cls-4{font-size:187.74px;fill:#231f20;font-family:Cinzel-Regular, Cinzel;}.cls-5{stroke:#231f20;stroke-miterlimit:10;stroke-width:0.25px;fill-rule:evenodd;}</style><clipPath id="clip-path"><circle class="cls-1" cx="91.2" cy="100.8" r="91.2"/></clipPath></defs><g id="Layer_4" data-name="Layer 4"><path class="cls-1" d="M115.91,101.36H65.34L52.77,133.45a13.45,13.45,0,0,0-.42,1.38h76a13.85,13.85,0,0,0-.45-1.49Z"/><polygon class="cls-1" points="67.55 95.73 113.79 95.73 91.16 35.48 67.55 95.73"/><path class="cls-2" d="M143.34,133.28,93.16,12.94H91.47c0,4.13-7,19.34-7,19.34l-42.57,101c-.24.53-.5,1-.76,1.53H52.35a13.45,13.45,0,0,1,.42-1.38l12.57-32.09h50.57l12,32a13.85,13.85,0,0,1,.45,1.49h15.75C143.84,134.33,143.59,133.82,143.34,133.28ZM67.55,95.73,91.16,35.48l22.63,60.25Z"/></g><g id="Layer_2" data-name="Layer 2"><g class="cls-3"><text class="cls-4" transform="translate(6.32 183.8)">M</text><path class="cls-5" d="M91.2,9.6a91.2,91.2,0,1,0,91.2,91.2A91.2,91.2,0,0,0,91.2,9.6Z"/></g></g></svg>