<?xml version="1.0" encoding="utf-8"?>
<!-- Generator: Adobe Illustrator 24.3.0, SVG Export Plug-In . SVG Version: 6.00 Build 0)  -->
<svg version="1.1" id="Calque_1" xmlns="http://www.w3.org/2000/svg" xmlns:xlink="http://www.w3.org/1999/xlink" x="0px" y="0px"
	 viewBox="0 0 182.4 192" style="enable-background:new 0 0 182.4 192;" xml:space="preserve">
<style type="text/css">
	.st0{fill:none;}
	.st1{fill:#FFFFFF;}
	.st2{clip-path:url(#SVGID_2_);}
	.st3{fill:#D8D8D8;}
	.st4{font-family:'ArialMT';}
	.st5{font-size:187.74px;}
	.st6{fill:none;stroke:#FFFFFF;stroke-width:0.25;stroke-miterlimit:10;}
</style>
<g id="Layer_4">
	<path class="st0" d="M115.9,101.4H65.3l-12.6,32.1c-0.2,0.5-0.3,0.9-0.4,1.4h76c-0.1-0.5-0.3-1-0.4-1.5L115.9,101.4z"/>
	<polygon class="st0" points="67.6,95.7 113.8,95.7 91.2,35.5 	"/>
	<path class="st1" d="M143.3,133.3L93.2,12.9h-1.7c0,4.1-7,19.3-7,19.3l-42.6,101c-0.2,0.5-0.5,1-0.8,1.5h11.2
		c0.1-0.5,0.3-0.9,0.4-1.4l12.6-32.1h50.6l12,32c0.2,0.5,0.3,1,0.5,1.5h15.8C143.8,134.3,143.6,133.8,143.3,133.3z M67.6,95.7
		l23.6-60.3l22.6,60.2L67.6,95.7z"/>
</g>
<g id="Layer_2">
	<g>
		<defs>
			<circle id="SVGID_1_" cx="91.2" cy="100.8" r="91.2"/>
		</defs>
		<clipPath id="SVGID_2_">
			<use xlink:href="#SVGID_1_"  style="overflow:visible;"/>
		</clipPath>
		<g class="st2">
			<text transform="matrix(1 0 0 1 6.32 183.8)" class="st3 st4 st5">M</text>
			<path class="st6" d="M91.2,9.6C40.8,9.6,0,50.4,0,100.8S40.8,192,91.2,192s91.2-40.8,91.2-91.2l0,0
				C182.4,50.4,141.6,9.6,91.2,9.6z"/>
		</g>
		<use xlink:href="#SVGID_1_"  style="overflow:visible;fill:none;stroke:#FFFFFF;stroke-miterlimit:10;"/>
	</g>
</g>
</svg>
